
<svg xmlns="http://www.w3.org/2000/svg" version="1.1" xmlns:xlink="http://www.w3.org/1999/xlink" preserveAspectRatio="none" x="0px" y="0px" width="50px" height="66px" viewBox="0 0 50 66">
<defs>
<g id="Layer0_0_FILL">
<path fill="#F76842" stroke="none" d="
M 44.4 39.7
Q 47.3 35.1 48.3 32 49.2 29.35 49.35 25.9 49.35 25.4 49.35 24.85 49.35 18.2 46.1 12.7 42.65 7.1 37.2 3.85 31.6 0.6 25.1 0.6 18.45 0.6 12.8 3.85 7.35 7.1 3.9 12.7 0.7 18.2 0.7 24.85 0.7 25.4 0.75 25.9 0.85 29.35 1.7 32 2.75 35.1 5.65 39.7 7.7 42.75 14 52 19.1 59.3 22.55 64.1 23.4 65.45 25.1 65.45 26.65 65.45 27.5 64.1
L 36 52
Q 42.35 42.75 44.4 39.7
M 43.55 14.25
Q 43.65 14.45 43.8 14.65 46.35 19.25 46.35 24.85 46.35 25.4 46.35 25.9 46.2 28.8 45.45 31.1 44.5 33.9 41.85 38.15 41.8 38.2 41.8 38.3 39.6 41.45 33.55 50.35
L 25.35 62
Q 25.15 62.1 25.05 62.3 24.9 62.1 24.75 62 21.35 57.3 16.6 50.5 16.6 50.4 16.55 50.35 10.25 41.1 8.2 38.05
L 8.15 38.05
Q 8.1 38 8.1 37.95
L 8.05 37.9
Q 5.5 33.8 4.55 31.05 4.5 30.95 4.5 30.9 3.8 28.7 3.75 25.9 3.7 25.4 3.7 24.85 3.7 19.1 6.45 14.35 6.5 14.25 6.55 14.2 9.45 9.45 14.05 6.65 14.15 6.6 14.3 6.55 14.4 6.5 14.45 6.4 19.35 3.6 25.1 3.6 30.8 3.6 35.7 6.45 35.8 6.55 35.95 6.6
L 36 6.6 36.05 6.65 36.1 6.65
Q 40.65 9.55 43.55 14.3
L 43.55 14.25 Z"/>

<path fill="#FFFFFF" fill-opacity="0.8" stroke="none" d="
M 43.8 14.65
Q 43.65 14.45 43.55 14.25
L 43.55 14.3
Q 40.65 9.55 36.1 6.65
L 36.05 6.65 36 6.6 35.95 6.6
Q 35.8 6.55 35.7 6.45 30.8 3.6 25.1 3.6 19.35 3.6 14.45 6.4 14.4 6.5 14.3 6.55 14.15 6.6 14.05 6.65 9.45 9.45 6.55 14.2 6.5 14.25 6.45 14.35 3.7 19.1 3.7 24.85 3.7 25.4 3.75 25.9
L 46.35 25.9
Q 46.35 25.4 46.35 24.85 46.35 19.25 43.8 14.65 Z"/>
</g>
</defs>

<g transform="matrix( 1, 0, 0, 1, 0,0.05) ">
<use xlink:href="#Layer0_0_FILL"/>
</g>
</svg>
